<svg width="243" height="40" viewBox="0 0 243 40" fill="none" xmlns="http://www.w3.org/2000/svg">
<path d="M5.52 15.88H19.48V20.28H5.52V15.88ZM5.96 31H0.76V3H21.2V7.36H5.96V31ZM34.2028 31.28C32.3895 31.28 30.7895 30.9467 29.4028 30.28C28.0161 29.5867 26.9361 28.5467 26.1628 27.16C25.3895 25.7467 25.0028 23.9733 25.0028 21.84V9.64H30.0028V21.16C30.0028 23.08 30.4295 24.52 31.2828 25.48C32.1628 26.4133 33.4028 26.88 35.0028 26.88C36.1761 26.88 37.1895 26.64 38.0428 26.16C38.9228 25.68 39.6028 24.96 40.0828 24C40.5895 23.04 40.8428 21.8533 40.8428 20.44V9.64H45.8428V31H41.0828V25.24L41.9228 27C41.2028 28.3867 40.1495 29.4533 38.7628 30.2C37.3761 30.92 35.8561 31.28 34.2028 31.28ZM52.3894 31V9.64H57.1494V15.52L56.5894 13.8C57.2294 12.36 58.2294 11.2667 59.5894 10.52C60.976 9.77333 62.696 9.4 64.7494 9.4V14.16C64.536 14.1067 64.336 14.08 64.1494 14.08C63.9627 14.0533 63.776 14.04 63.5894 14.04C61.696 14.04 60.1894 14.6 59.0694 15.72C57.9494 16.8133 57.3894 18.4533 57.3894 20.64V31H52.3894ZM81.1109 9.4C82.8176 9.4 84.3376 9.73333 85.6709 10.4C87.0309 11.0667 88.0976 12.0933 88.8709 13.48C89.6443 14.84 90.0309 16.6 90.0309 18.76V31H85.0309V19.4C85.0309 17.5067 84.5776 16.0933 83.6709 15.16C82.7909 14.2267 81.5509 13.76 79.9509 13.76C78.7776 13.76 77.7376 14 76.8309 14.48C75.9243 14.96 75.2176 15.68 74.7109 16.64C74.2309 17.5733 73.9909 18.76 73.9909 20.2V31H68.9909V9.64H73.7509V15.4L72.9109 13.64C73.6576 12.28 74.7376 11.24 76.1509 10.52C77.5909 9.77333 79.2443 9.4 81.1109 9.4ZM96.3738 31V9.64H101.374V31H96.3738ZM98.8938 6.12C97.9604 6.12 97.1871 5.82666 96.5738 5.24C95.9871 4.65333 95.6938 3.94667 95.6938 3.12C95.6938 2.26667 95.9871 1.56 96.5738 0.999998C97.1871 0.413332 97.9604 0.119999 98.8938 0.119999C99.8271 0.119999 100.587 0.399999 101.174 0.959998C101.787 1.49333 102.094 2.17333 102.094 3C102.094 3.88 101.8 4.62666 101.214 5.24C100.627 5.82666 99.8538 6.12 98.8938 6.12Z" fill="white"/>
<path d="M113.176 15.88H127.136V20.28H113.176V15.88ZM113.616 31H108.416V3H128.856V7.36H113.616V31ZM133.014 31V9.64H137.774V15.52L137.214 13.8C137.854 12.36 138.854 11.2667 140.214 10.52C141.601 9.77333 143.321 9.4 145.374 9.4V14.16C145.161 14.1067 144.961 14.08 144.774 14.08C144.588 14.0533 144.401 14.04 144.214 14.04C142.321 14.04 140.814 14.6 139.694 15.72C138.574 16.8133 138.014 18.4533 138.014 20.64V31H133.014ZM159.461 31.28C157.087 31.28 155.007 30.8133 153.221 29.88C151.461 28.92 150.087 27.6133 149.101 25.96C148.141 24.3067 147.661 22.4267 147.661 20.32C147.661 18.1867 148.127 16.3067 149.061 14.68C150.021 13.0267 151.327 11.7333 152.981 10.8C154.661 9.86667 156.567 9.4 158.701 9.4C160.781 9.4 162.634 9.85333 164.261 10.76C165.887 11.6667 167.167 12.9467 168.101 14.6C169.034 16.2533 169.501 18.2 169.501 20.44C169.501 20.6533 169.487 20.8933 169.461 21.16C169.461 21.4267 169.447 21.68 169.421 21.92H151.621V18.6H166.781L164.821 19.64C164.847 18.4133 164.594 17.3333 164.061 16.4C163.527 15.4667 162.794 14.7333 161.861 14.2C160.954 13.6667 159.901 13.4 158.701 13.4C157.474 13.4 156.394 13.6667 155.461 14.2C154.554 14.7333 153.834 15.48 153.301 16.44C152.794 17.3733 152.541 18.48 152.541 19.76V20.56C152.541 21.84 152.834 22.9733 153.421 23.96C154.007 24.9467 154.834 25.7067 155.901 26.24C156.967 26.7733 158.194 27.04 159.581 27.04C160.781 27.04 161.861 26.8533 162.821 26.48C163.781 26.1067 164.634 25.52 165.381 24.72L168.061 27.8C167.101 28.92 165.887 29.7867 164.421 30.4C162.981 30.9867 161.327 31.28 159.461 31.28ZM186.423 9.4C188.13 9.4 189.65 9.73333 190.983 10.4C192.343 11.0667 193.41 12.0933 194.183 13.48C194.957 14.84 195.343 16.6 195.343 18.76V31H190.343V19.4C190.343 17.5067 189.89 16.0933 188.983 15.16C188.103 14.2267 186.863 13.76 185.263 13.76C184.09 13.76 183.05 14 182.143 14.48C181.237 14.96 180.53 15.68 180.023 16.64C179.543 17.5733 179.303 18.76 179.303 20.2V31H174.303V9.64H179.063V15.4L178.223 13.64C178.97 12.28 180.05 11.24 181.463 10.52C182.903 9.77333 184.557 9.4 186.423 9.4ZM199.926 31V27.84L213.086 11.92L214.006 13.64H200.166V9.64H218.006V12.8L204.846 28.72L203.846 27H218.366V31H199.926ZM224.345 39.04C223.305 39.04 222.265 38.8667 221.225 38.52C220.185 38.1733 219.318 37.6933 218.625 37.08L220.625 33.4C221.131 33.8533 221.705 34.2133 222.345 34.48C222.985 34.7467 223.638 34.88 224.305 34.88C225.211 34.88 225.945 34.6533 226.505 34.2C227.065 33.7467 227.585 32.9867 228.065 31.92L229.305 29.12L229.705 28.52L237.785 9.64H242.585L232.585 32.72C231.918 34.32 231.171 35.5867 230.345 36.52C229.545 37.4533 228.638 38.1067 227.625 38.48C226.638 38.8533 225.545 39.04 224.345 39.04ZM228.745 31.76L219.105 9.64H224.305L232.145 28.08L228.745 31.76Z" fill="#A95C68"/>
</svg>
